<?xml version="1.0" encoding="utf-8"?>
<!-- Generator: Adobe Illustrator 17.1.0, SVG Export Plug-In . SVG Version: 6.00 Build 0)  -->
<!DOCTYPE svg PUBLIC "-//W3C//DTD SVG 1.1//EN" "http://www.w3.org/Graphics/SVG/1.1/DTD/svg11.dtd">
<svg version="1.1" id="Layer_1" xmlns="http://www.w3.org/2000/svg" xmlns:xlink="http://www.w3.org/1999/xlink" x="0px" y="0px"
	 viewBox="0 0 72 45" enable-background="new 0 0 72 45" xml:space="preserve">
<g id="paypal">
	<g>
		<linearGradient id="SVGID_1_" gradientUnits="userSpaceOnUse" x1="36" y1="1.317249e-06" x2="36" y2="45">
			<stop  offset="0" style="stop-color:#FFFFFF"/>
			<stop  offset="1" style="stop-color:#BDCCD4"/>
		</linearGradient>
		<path fill="url(#SVGID_1_)" d="M72,40.5c0,2.475-2.025,4.5-4.5,4.5h-63C2.025,45,0,42.975,0,40.5v-36C0,2.025,2.025,0,4.5,0h63
			C69.975,0,72,2.025,72,4.5V40.5z"/>
		<g>
			<path fill="#999999" d="M67.5,0.15c2.399,0,4.35,1.951,4.35,4.35v36c0,2.399-1.951,4.35-4.35,4.35h-63
				c-2.399,0-4.35-1.951-4.35-4.35v-36c0-2.399,1.951-4.35,4.35-4.35H67.5 M67.5,0h-63C2.025,0,0,2.025,0,4.5v36
				C0,42.975,2.025,45,4.5,45h63c2.475,0,4.5-2.025,4.5-4.5v-36C72,2.025,69.975,0,67.5,0L67.5,0z"/>
		</g>
	</g>
	<g>
		<path fill="#336699" d="M58.313,19.693c-0.657-0.367-1.684-0.552-3.09-0.552c-0.695,0-1.394,0.056-2.095,0.164
			c-0.515,0.079-0.567,0.092-0.887,0.161c-0.658,0.143-0.759,0.801-0.759,0.801l-0.211,0.869c-0.12,0.555,0.197,0.532,0.337,0.489
			c0.287-0.087,0.443-0.173,1.028-0.305c0.56-0.127,1.151-0.222,1.623-0.218c0.692,0,1.219,0.076,1.569,0.222
			c0.35,0.153,0.523,0.413,0.523,0.785c0.001,0.088,0.003,0.172-0.028,0.245c-0.029,0.068-0.084,0.134-0.25,0.156
			c-0.988,0.059-1.697,0.149-2.551,0.274c-0.842,0.119-1.58,0.322-2.196,0.603c-0.657,0.292-1.149,0.681-1.487,1.176
			c-0.33,0.496-0.495,1.097-0.496,1.806c0,0.669,0.241,1.215,0.706,1.639c0.471,0.418,1.083,0.625,1.824,0.625
			c0.463-0.003,0.825-0.037,1.085-0.102c0.257-0.065,0.537-0.157,0.834-0.285c0.221-0.093,0.46-0.226,0.712-0.394
			c0.253-0.168,0.427-0.288,0.652-0.435l0.008,0.014l-0.063,0.278c0,0.003-0.004,0.004-0.004,0.007l0.002,0.005
			c-0.072,0.335,0.13,0.614,0.462,0.647l0.004,0.006h0.029l0.001,0.002c0.221,0,0.977-0.001,1.331-0.002h0.247
			c0.016,0,0.018-0.005,0.024-0.009c0.339-0.042,0.664-0.318,0.741-0.65l1.263-5.452c0.029-0.128,0.052-0.276,0.066-0.447
			c0.016-0.172,0.034-0.314,0.029-0.416C59.299,20.63,58.968,20.06,58.313,19.693z M55.253,26.189
			c-0.215,0.135-0.441,0.251-0.679,0.35c-0.319,0.129-0.622,0.196-0.902,0.196c-0.43,0-0.76-0.061-0.984-0.191
			c-0.224-0.123-0.341-0.338-0.337-0.644c0-0.354,0.081-0.629,0.251-0.845c0.17-0.207,0.424-0.374,0.738-0.499
			c0.312-0.106,0.697-0.193,1.14-0.256c0.394-0.05,1.174-0.14,1.274-0.14c0.1-0.001,0.166-0.056,0.122,0.21
			c-0.02,0.115-0.245,1.04-0.348,1.46C55.497,25.956,55.329,26.14,55.253,26.189z"/>
		<path fill="#003366" d="M36.583,19.262c-0.37,0-0.856,0.3-1.087,0.662c0,0-2.478,4.249-2.722,4.674
			c-0.132,0.228-0.266,0.083-0.289-0.002c-0.018-0.103-0.768-4.644-0.768-4.644c-0.084-0.366-0.466-0.679-0.944-0.678l-1.545,0.003
			c-0.373,0-0.605,0.298-0.522,0.659c0,0,1.181,6.696,1.412,8.271c0.115,0.871-0.012,1.025-0.012,1.025l-1.532,2.671
			c-0.224,0.362-0.102,0.659,0.269,0.659l1.791-0.001c0.371,0,0.862-0.295,1.083-0.658l6.89-11.653c0,0,0.659-0.995,0.051-0.987
			C38.245,19.268,36.583,19.262,36.583,19.262"/>
		<path fill="#003366" d="M14.833,21.631c-0.521,0.381-1.244,0.572-2.182,0.572h-0.424c-0.374,0-0.61-0.296-0.527-0.66l0.521-2.244
			c0.079-0.361,0.452-0.661,0.826-0.658l0.566-0.004c0.661,0,1.164,0.113,1.503,0.338c0.334,0.219,0.504,0.565,0.498,1.03
			C15.623,20.706,15.357,21.248,14.833,21.631 M18.568,18.173c-0.215-0.419-0.537-0.76-0.948-1.017
			c-0.427-0.263-0.923-0.445-1.501-0.554c-0.582-0.104-1.262-0.155-2.042-0.162l-3.61,0.003c-0.375,0.005-0.743,0.299-0.829,0.659
			L7.202,27.685c-0.084,0.362,0.151,0.661,0.524,0.661h1.73c0.374,0,0.745-0.292,0.828-0.661l0.596-2.568
			c0.08-0.359,0.449-0.656,0.824-0.656h0.494c2.115-0.002,3.756-0.435,4.935-1.301c1.177-0.864,1.766-2.01,1.763-3.427
			C18.9,19.109,18.793,18.588,18.568,18.173"/>
		<path fill="#336699" d="M46.236,21.674c-0.518,0.377-1.246,0.566-2.182,0.566h-0.431c-0.372,0.004-0.613-0.297-0.524-0.658
			l0.519-2.247c0.077-0.356,0.455-0.658,0.822-0.655l0.569-0.003c0.664,0.003,1.16,0.114,1.503,0.335
			c0.337,0.223,0.5,0.57,0.503,1.031C47.017,20.747,46.757,21.288,46.236,21.674 M49.969,18.211
			c-0.216-0.419-0.541-0.757-0.953-1.02c-0.422-0.262-0.923-0.445-1.504-0.552c-0.574-0.101-1.256-0.158-2.034-0.16l-3.619,0.002
			c-0.373,0.006-0.738,0.299-0.824,0.659l-2.433,10.587c-0.089,0.36,0.153,0.659,0.519,0.658l1.736-0.003
			c0.368,0.003,0.744-0.295,0.83-0.654l0.587-2.569c0.082-0.36,0.457-0.662,0.831-0.656H43.6c2.118,0,3.76-0.435,4.936-1.301
			c1.173-0.87,1.763-2.012,1.763-3.432C50.295,19.148,50.19,18.625,49.969,18.211"/>
		<path fill="#003366" d="M26.905,19.685c-0.657-0.366-1.684-0.551-3.089-0.551c-0.695,0-1.394,0.055-2.095,0.164
			c-0.515,0.078-0.567,0.092-0.887,0.161c-0.658,0.144-0.759,0.802-0.759,0.802l-0.211,0.869c-0.119,0.555,0.197,0.532,0.338,0.489
			c0.287-0.087,0.443-0.172,1.029-0.305c0.559-0.127,1.151-0.222,1.623-0.218c0.693,0,1.219,0.076,1.569,0.222
			c0.35,0.153,0.523,0.413,0.523,0.785c0.002,0.089,0.004,0.172-0.027,0.245c-0.029,0.068-0.085,0.134-0.25,0.156
			c-0.987,0.06-1.696,0.149-2.551,0.274c-0.843,0.119-1.579,0.322-2.196,0.603c-0.657,0.292-1.148,0.682-1.486,1.176
			c-0.331,0.496-0.496,1.097-0.497,1.806c0,0.669,0.241,1.215,0.706,1.639c0.471,0.418,1.083,0.626,1.824,0.626
			c0.463-0.003,0.825-0.037,1.086-0.102c0.257-0.065,0.537-0.157,0.832-0.285c0.222-0.093,0.46-0.227,0.713-0.395
			c0.252-0.168,0.428-0.288,0.653-0.435l0.007,0.014l-0.063,0.278c-0.001,0.003-0.004,0.005-0.004,0.008l0.003,0.005
			c-0.072,0.336,0.129,0.615,0.461,0.647l0.004,0.006h0.029l0.001,0.002c0.221,0,0.978-0.001,1.331-0.002h0.247
			c0.017,0,0.019-0.005,0.024-0.009c0.34-0.043,0.664-0.319,0.741-0.649l1.263-5.452c0.029-0.128,0.052-0.276,0.064-0.446
			c0.017-0.173,0.035-0.314,0.03-0.416C27.891,20.622,27.559,20.051,26.905,19.685z M23.844,26.181
			c-0.215,0.135-0.441,0.251-0.679,0.349c-0.319,0.128-0.623,0.196-0.903,0.196c-0.429,0-0.76-0.061-0.984-0.191
			c-0.223-0.124-0.341-0.338-0.337-0.645c0-0.353,0.083-0.629,0.252-0.844c0.171-0.208,0.423-0.375,0.737-0.499
			c0.313-0.106,0.698-0.193,1.141-0.255c0.394-0.05,1.175-0.139,1.274-0.141c0.099,0,0.166-0.056,0.121,0.21
			c-0.019,0.115-0.245,1.04-0.348,1.46C24.087,25.949,23.92,26.132,23.844,26.181z"/>
		<g>
			<g>
				<path fill="#336699" d="M64.276,16.566h-1.548c-0.001,0-0.001,0-0.001,0l-0.002,0c-0.345,0-0.689,0.261-0.799,0.594
					c-0.008,0.022-0.024,0.042-0.029,0.065c0,0-0.035,0.157-0.095,0.433l-2.132,9.667c-0.049,0.215-0.081,0.355-0.091,0.392
					l0.004,0.006c-0.072,0.333,0.129,0.602,0.456,0.638l0.01,0.014h1.606c0.341,0,0.681-0.256,0.795-0.583
					c0.009-0.026,0.027-0.049,0.034-0.076l2.319-10.492l-0.004-0.001C64.878,16.864,64.647,16.566,64.276,16.566z"/>
			</g>
		</g>
	</g>
</g>
</svg>
