<?xml version="1.0" encoding="UTF-8" standalone="no"?>
<svg xmlns="http://www.w3.org/2000/svg" xmlns:xlink="http://www.w3.org/1999/xlink" xmlns:sketch="http://www.bohemiancoding.com/sketch/ns" width="36px" height="42px" viewBox="0 0 36 42" version="1.1">
    <!-- Generator: Sketch 3.0.3 (7891) - http://www.bohemiancoding.com/sketch -->
    <title>shopify-bag</title>
    <desc>Created with Sketch.</desc>
    <defs/>
    <g id="Page-1" stroke="none" stroke-width="1" fill="none" fill-rule="evenodd" sketch:type="MSPage">
        <g id="Login---placeholders" sketch:type="MSArtboardGroup" transform="translate(-588.000000, -593.000000)" fill="#95A7B7">
            <g id="shopify-bag" sketch:type="MSLayerGroup" transform="translate(588.000000, 594.000000)">
                <path d="M30.7241667,7.74227273 C30.7241667,7.74227273 30.6909615,7.56 30.5891026,7.49363636 C30.4872436,7.42681818 30.3759615,7.41409091 30.3759615,7.41409091 L27.1644872,7.17181818 L25.144359,5.13954545 C25.0559615,5.07 24.951859,5.02954545 24.8459615,5.00863636 L23.1188462,40.2045455 L35.0789744,37.5822727 L30.7241667,7.74227273" id="Fill-8" sketch:type="MSShapeGroup"/>
                <path d="M23.59,4.79090909 L22.7087179,5.06727273 C22.1769872,3.47363636 21.4491667,2.33909091 20.5351282,1.68409091 C19.859359,1.19909091 19.1158333,0.989090909 18.3157692,1.05227273 C18.1492949,0.827272727 17.9653205,0.631818182 17.7642949,0.467272727 C16.8780769,-0.258181818 15.735641,-0.371363636 14.3688462,0.131363636 C10.2689103,1.63909091 8.52833333,7.02136364 7.90102564,9.71045455 L4.32788462,10.8309091 C4.32788462,10.8309091 3.48653846,11.0731818 3.28865385,11.3127273 C3.07237179,11.5759091 3.03064103,12.2863636 3.03064103,12.2863636 L0,35.9659091 L22.4251282,40.2222727 L24.1594231,4.77090909 C23.908141,4.72090909 23.6519231,4.77590909 23.59,4.79090909 L23.59,4.79090909 Z M18.1533333,6.49545455 L14.2050641,7.73363636 C14.7282692,5.65772727 15.7338462,3.53681818 17.6557051,2.71 C18.0546154,3.76909091 18.1645513,5.21863636 18.1533333,6.49545455 L18.1533333,6.49545455 Z M14.836859,1.43818182 C15.6723718,1.13136364 16.3135897,1.14590909 16.7964103,1.47590909 C14.2203205,2.66590909 13.0953846,5.66409091 12.6098718,8.23409091 L9.44865385,9.225 C10.1549359,6.63954545 11.7299359,2.58090909 14.836859,1.43818182 L14.836859,1.43818182 Z M17.0494872,18.89 C16.8686538,18.8009091 16.6555128,18.7059091 16.4141026,18.615 C16.1744872,18.5254545 15.9079487,18.4395455 15.6189744,18.3677273 C15.3326923,18.2968182 15.0244231,18.2395455 14.6991026,18.2054545 C14.3778205,18.1718182 14.0399359,18.1609091 13.6899359,18.1818182 C13.3686538,18.2009091 13.0774359,18.2586364 12.8212179,18.3513636 C12.5672436,18.4431818 12.3469231,18.5695455 12.1651923,18.7263636 C11.984359,18.8827273 11.8412179,19.0690909 11.7407051,19.2840909 C11.6401923,19.4977273 11.5814103,19.74 11.5701923,20.0072727 C11.5616667,20.2054545 11.5921795,20.3954545 11.6608333,20.5804545 C11.7294872,20.7659091 11.8371795,20.9472727 11.9839103,21.1272727 C12.1310897,21.3081818 12.3177564,21.4895455 12.5434615,21.6731818 C12.7714103,21.8586364 13.040641,22.0477273 13.3507051,22.2436364 C13.7855128,22.5259091 14.2297436,22.8440909 14.6524359,23.2086364 C15.0809615,23.5790909 15.4870513,23.9968182 15.8357051,24.4722727 C16.1888462,24.9540909 16.481859,25.4931818 16.6797436,26.0981818 C16.8794231,26.7077273 16.9803846,27.3804545 16.9485256,28.1213636 C16.8964744,29.3331818 16.6344231,30.3777273 16.2005128,31.2440909 C15.7724359,32.0995455 15.1819231,32.7718182 14.4698077,33.2590909 C13.7733974,33.7354545 12.9675,34.0304545 12.0902564,34.1495455 C11.2385897,34.265 10.3254487,34.2136364 9.38403846,34.0027273 C9.37641026,34.0009091 9.36878205,33.9995455 9.36160256,33.9977273 C9.35397436,33.9963636 9.34679487,33.9945455 9.33916667,33.9927273 C9.33198718,33.9913636 9.32435897,33.9895455 9.31673077,33.9877273 C9.30955128,33.9859091 9.30192308,33.9840909 9.29429487,33.9822727 C8.85275641,33.8740909 8.42737179,33.7336364 8.02666667,33.5695455 C7.63224359,33.4077273 7.26160256,33.2236364 6.92461538,33.025 C6.59166667,32.8286364 6.29102564,32.6177273 6.02987179,32.3995455 C5.77230769,32.1840909 5.55288462,31.9609091 5.38057692,31.7377273 L6.41980769,28.2454545 C6.59480769,28.3954545 6.80974359,28.5654545 7.05384615,28.7395455 C7.30019231,28.9154545 7.5775,29.0954545 7.87455128,29.2636364 C8.17519231,29.4336364 8.49602564,29.5913636 8.82628205,29.7195455 C9.16057692,29.8495455 9.50474359,29.9490909 9.84576923,30 C10.146859,30.045 10.4160897,30.0359091 10.6516667,29.9822727 C10.8890385,29.9277273 11.0914103,29.8281818 11.2574359,29.6918182 C11.4239103,29.5554545 11.553141,29.3822727 11.6433333,29.1831818 C11.7335256,28.9840909 11.7846795,28.7595455 11.795,28.5190909 C11.8053205,28.2786364 11.7833333,28.0522727 11.7236538,27.8322727 C11.6644231,27.6127273 11.5670513,27.4004545 11.4270513,27.1868182 C11.2870513,26.9740909 11.1053205,26.7613636 10.8764744,26.5413636 C10.6489744,26.3227273 10.3761538,26.0977273 10.0530769,25.8581818 C9.65685897,25.5590909 9.28397436,25.2336364 8.95012821,24.8795455 C8.62032051,24.53 8.32775641,24.1522727 8.08814103,23.7413636 C7.85121795,23.335 7.66455128,22.895 7.54384615,22.4172727 C7.42314103,21.9418182 7.3675,21.4268182 7.39173077,20.8668182 C7.43211538,19.9290909 7.61698718,19.0654545 7.92660256,18.2872727 C8.23935897,17.5013636 8.68269231,16.7959091 9.23865385,16.1886364 C9.80538462,15.5695455 10.4946154,15.0472727 11.2897436,14.645 C12.106859,14.2313636 13.0419872,13.9413636 14.0776282,13.8036364 C14.5582051,13.74 15.0194872,13.71 15.4551923,13.7077273 C15.8976282,13.7059091 16.3135897,13.7322727 16.6967949,13.7818182 C17.0849359,13.8322727 17.4385256,13.905 17.7512821,13.995 C18.0676282,14.0854545 18.3413462,14.1927273 18.5666026,14.3095455 L17.0494872,18.89 L17.0494872,18.89 Z M19.5210256,6.06681818 C19.5192308,5.90954545 19.5160897,5.75 19.5102564,5.58772727 C19.4640385,4.34363636 19.2975641,3.295 19.0135256,2.44590909 C19.3217949,2.47772727 19.6040385,2.58090909 19.8598077,2.76454545 C20.5759615,3.27727273 21.0901923,4.31 21.4523077,5.46090909 L19.5210256,6.06681818 L19.5210256,6.06681818 Z" id="Fill-9" sketch:type="MSShapeGroup"/>
            </g>
        </g>
    </g>
</svg>
